<?xml version="1.0" standalone="no"?>
<!DOCTYPE svg PUBLIC "-//W3C//DTD SVG 20010904//EN"
 "http://www.w3.org/TR/2001/REC-SVG-20010904/DTD/svg10.dtd">
<svg version="1.0" xmlns="http://www.w3.org/2000/svg"
 width="1200.000000pt" height="1800.000000pt" viewBox="0 0 1200.000000 1800.000000"
 preserveAspectRatio="xMidYMid meet">

<g transform="translate(0.000000,1800.000000) scale(0.100000,-0.100000)"
fill="#000000" stroke="none">
<path d="M3872 16999 c-107 -356 -197 -670 -245 -859 -69 -267 -85 -421 -96
-923 l-8 -357 -27 -40 c-14 -22 -30 -40 -35 -40 -23 0 -82 198 -107 357 -18
117 -32 756 -34 1533 -1 283 -5 537 -8 564 -6 40 -21 -43 -85 -470 -92 -606
-89 -540 -55 -1243 l22 -474 -64 -58 c-36 -32 -69 -57 -74 -56 -19 6 -67 108
-86 183 -29 117 -203 1203 -265 1659 -41 300 -37 293 -65 125 -30 -185 -32
-367 -6 -812 l19 -326 -46 -134 c-45 -130 -46 -136 -50 -281 -3 -112 -1 -151
9 -165 8 -10 13 -45 14 -85 0 -125 -26 -82 -163 258 -123 306 -211 543 -288
775 -50 149 -69 195 -70 170 -1 -19 -5 -129 -9 -245 l-7 -210 80 -465 c43
-256 81 -467 83 -469 3 -3 12 5 20 18 16 22 16 22 41 -31 18 -39 22 -57 15
-69 -7 -11 -6 -35 5 -78 14 -54 21 -66 54 -88 39 -25 39 -27 144 -350 85 -260
105 -333 103 -371 -3 -47 -3 -47 -127 203 -123 247 -125 251 -123 314 2 63 2
64 -75 184 -73 112 -81 122 -132 144 -29 13 -55 23 -56 21 -2 -2 23 -73 54
-158 32 -85 58 -156 57 -157 -1 -1 -20 3 -43 8 l-41 11 -208 399 c-114 220
-209 398 -211 396 -2 -2 13 -150 33 -328 l36 -324 57 -130 c50 -114 63 -134
102 -163 43 -33 45 -38 105 -216 46 -138 72 -200 112 -263 49 -79 51 -83 29
-83 -13 0 -34 11 -47 25 -18 19 -26 22 -32 13 -16 -26 -7 -79 31 -186 l39
-109 -16 -56 c-8 -32 -18 -57 -22 -57 -3 0 -26 44 -50 98 -24 53 -46 100 -50
105 -13 15 50 -354 66 -384 15 -30 15 -31 -5 -24 -18 5 -20 1 -23 -51 l-3 -58
-103 117 c-97 110 -104 116 -144 119 l-42 3 -95 164 c-94 160 -105 174 -540
682 -244 286 -445 518 -447 516 -2 -2 88 -195 200 -430 l205 -426 230 -335
c126 -185 227 -336 224 -336 -3 0 -31 16 -64 36 -50 31 -78 63 -185 206 -70
93 -128 167 -130 165 -2 -2 35 -118 81 -258 l85 -255 156 -240 c149 -229 192
-300 162 -263 -79 96 -372 428 -375 426 -2 -2 8 -61 21 -130 23 -125 24 -127
74 -185 l50 -58 19 -162 c10 -89 18 -162 17 -162 -2 0 -37 27 -78 60 -49 39
-76 55 -76 45 0 -9 23 -163 50 -343 33 -210 57 -336 67 -352 18 -28 257 -369
312 -445 20 -27 29 -45 21 -40 -8 5 -97 71 -197 147 -100 76 -185 138 -189
138 -4 0 -4 -63 -1 -141 6 -161 1 -172 -58 -120 -20 17 -37 31 -38 31 -1 0 3
-122 10 -271 l12 -271 78 -95 c120 -146 129 -158 113 -148 -8 5 -71 49 -139
98 -67 48 -125 86 -128 84 -2 -3 3 -112 11 -243 l15 -239 86 -335 86 -335 55
-72 c30 -40 54 -75 54 -78 0 -3 -52 33 -115 80 -63 47 -117 85 -118 85 -2 0
19 -104 48 -232 l51 -231 60 -30 c49 -24 66 -39 87 -77 33 -59 33 -60 1 -60
-24 0 -22 -4 41 -86 l67 -87 -32 6 -32 7 21 -34 c32 -52 29 -122 -9 -175 -34
-47 -33 -57 10 -66 16 -4 32 -11 35 -15 3 -5 -17 -57 -44 -116 -50 -104 -50
-107 -34 -134 15 -26 15 -34 0 -112 -10 -45 -17 -86 -17 -90 0 -4 34 11 75 33
l75 41 27 -20 c16 -11 41 -34 57 -50 l28 -30 -66 -85 c-36 -47 -66 -88 -66
-91 0 -3 26 -6 58 -6 l57 0 32 -49 31 -48 136 -18 136 -17 0 -37 c0 -20 -3
-73 -7 -118 l-6 -82 -84 -56 c-47 -31 -82 -59 -79 -62 19 -19 159 -53 221 -53
l70 -1 38 -47 37 -47 -50 -5 -49 -5 50 -58 51 -57 944 0 c927 0 944 0 944 19
0 11 -5 32 -10 47 -8 21 -14 24 -22 16 -7 -7 -21 -12 -32 -12 -27 0 -76 49
-76 75 0 22 -38 65 -56 65 -15 0 -54 57 -54 79 0 33 -19 71 -35 71 -11 0 -15
12 -15 49 0 45 6 58 70 149 38 54 70 106 70 114 0 8 27 46 60 86 33 39 60 75
60 81 0 20 -92 236 -105 247 -8 6 -113 28 -234 49 -271 47 -265 44 -283 170
-17 121 -17 553 0 665 19 121 57 268 94 363 46 114 117 230 147 237 25 6 59
73 60 118 1 37 20 65 35 53 10 -9 17 0 31 36 25 66 136 230 154 229 9 -1 22
17 32 44 10 27 29 53 49 66 18 12 46 38 64 56 40 44 233 153 265 150 33 -3 66
20 97 68 20 29 30 37 39 30 9 -7 22 5 49 45 28 43 41 55 55 50 14 -4 24 3 39
27 19 30 21 56 27 313 6 260 5 306 -24 649 -17 204 -33 371 -35 373 -2 2 -6
-8 -10 -22 -4 -14 -10 -25 -15 -25 -10 0 -21 245 -21 469 0 91 -3 190 -6 219
-6 46 -8 50 -20 35 -7 -10 -14 -32 -14 -49 0 -23 -6 -34 -25 -42 -41 -19 -45
-15 -45 38 0 28 -2 50 -5 50 -3 0 -34 -22 -69 -50 l-63 -50 -7 -152 c-8 -186
-16 -258 -27 -258 -5 0 -16 25 -25 56 -13 45 -18 53 -30 43 -12 -9 -14 -5 -14
24 0 21 -6 37 -15 40 -42 17 -138 249 -195 470 -67 267 -90 441 -90 699 0 270
34 467 110 635 25 55 33 92 45 212 26 244 44 334 71 349 22 12 50 205 64 447
10 150 18 208 37 275 21 70 26 111 29 235 l4 150 -18 -45 c-10 -25 -23 -44
-30 -43 -12 3 -13 -1 -75 -212 -25 -82 -50 -184 -57 -225 -17 -109 -73 -325
-124 -483 -25 -75 -54 -177 -65 -225 -29 -128 -61 -402 -61 -518 0 -95 -1
-102 -26 -125 l-26 -24 -24 28 c-22 26 -24 36 -24 138 0 60 4 109 9 109 5 0
11 -6 14 -12 6 -20 14 39 47 342 57 533 147 1084 245 1515 24 105 57 255 74
335 16 80 39 186 49 235 11 50 22 142 26 205 3 64 11 142 17 174 6 32 8 60 6
62 -6 6 -128 -361 -176 -531 -169 -592 -299 -1245 -357 -1784 -15 -145 -15
-155 2 -192 17 -39 17 -41 -2 -60 -20 -19 -20 -19 -52 14 l-32 33 -5 189 c-10
381 63 1148 226 2359 22 164 38 303 37 308 -2 6 -45 -127 -96 -293z m-1945
-6638 l121 -38 425 -387 425 -386 3 -44 c3 -28 0 -42 -6 -38 -5 3 -69 52 -140
108 -117 91 -133 107 -145 147 -14 42 -37 64 -307 286 -161 133 -295 241 -297
241 -3 0 -6 -9 -8 -20 -5 -31 -141 61 -173 119 -24 41 -28 51 -22 51 1 0 57
-18 124 -39z m533 -1146 c19 -19 40 -35 48 -35 26 0 72 -41 72 -64 0 -28 18
-46 47 -46 16 0 37 -19 72 -66 58 -76 58 -110 0 -46 -30 35 -43 42 -73 42 -23
0 -52 10 -76 26 -34 22 -40 32 -40 60 0 26 -4 34 -17 34 -15 0 -113 108 -113
125 0 3 10 5 23 5 13 0 38 -15 57 -35z m55 -1264 c42 -55 77 -92 92 -96 20 -5
47 -43 38 -53 -2 -2 -20 2 -41 8 -33 9 -50 26 -111 108 -53 71 -69 100 -61
109 6 7 12 13 13 13 1 0 33 -40 70 -89z m175 -196 c19 -4 62 -24 96 -46 48
-31 70 -39 107 -39 25 0 48 -4 51 -9 11 -17 -19 -29 -93 -40 l-74 -10 -79 65
c-74 62 -100 102 -60 90 9 -2 33 -8 52 -11z m410 -173 c0 -39 -6 -52 -44 -97
-37 -43 -53 -53 -97 -63 -28 -7 -54 -10 -56 -8 -3 2 15 34 39 69 35 54 48 66
73 69 29 3 30 5 33 62 l3 58 25 -23 c18 -17 24 -33 24 -67z"/>
<path d="M8030 17289 c0 -9 9 -80 20 -160 40 -282 120 -929 155 -1239 74 -668
97 -996 90 -1265 l-5 -189 -32 -33 c-32 -33 -32 -33 -52 -14 -19 19 -19 21 -2
60 17 37 17 47 2 192 -58 539 -188 1192 -357 1784 -48 170 -170 537 -176 531
-2 -2 0 -30 6 -62 6 -32 14 -110 17 -174 4 -63 15 -155 26 -205 10 -49 33
-155 49 -235 17 -80 50 -230 74 -335 98 -431 188 -982 245 -1515 33 -303 41
-362 47 -342 3 6 9 12 14 12 5 0 9 -51 9 -113 0 -108 -1 -115 -25 -137 l-25
-23 -25 23 c-23 22 -25 30 -25 124 0 116 -32 390 -61 518 -11 48 -40 150 -65
225 -51 158 -107 374 -124 483 -7 41 -32 143 -57 225 -62 211 -63 215 -75 212
-7 -1 -20 18 -30 43 l-18 45 4 -150 c3 -124 8 -165 29 -235 19 -67 27 -125 37
-275 14 -242 42 -435 64 -447 27 -15 45 -105 71 -349 12 -120 20 -157 45 -212
116 -256 144 -666 74 -1087 -49 -295 -188 -693 -249 -717 -9 -3 -15 -19 -15
-40 0 -29 -2 -33 -14 -24 -12 10 -17 2 -30 -43 -31 -105 -40 -67 -52 202 l-7
152 -63 50 c-35 28 -66 50 -69 50 -3 0 -5 -22 -5 -50 0 -53 -4 -57 -45 -38
-19 8 -25 19 -25 42 0 17 -7 39 -14 49 -12 15 -14 11 -20 -35 -3 -29 -6 -128
-6 -219 0 -224 -11 -469 -21 -469 -5 0 -11 11 -15 25 -4 14 -8 24 -10 22 -2
-2 -18 -169 -35 -373 -29 -343 -30 -388 -24 -649 6 -257 8 -283 27 -313 15
-24 25 -31 39 -27 14 5 27 -7 55 -50 27 -40 40 -52 49 -45 9 7 19 -1 39 -30
31 -48 64 -71 97 -68 32 3 225 -106 265 -150 18 -18 46 -44 64 -56 20 -13 39
-39 49 -66 10 -27 23 -45 32 -44 18 1 129 -163 154 -229 14 -36 21 -45 31 -36
15 12 34 -16 35 -53 1 -45 35 -112 60 -118 48 -11 154 -222 198 -396 47 -183
55 -258 56 -524 0 -308 -13 -424 -51 -456 -19 -16 -75 -30 -245 -59 -121 -21
-226 -43 -234 -49 -13 -11 -105 -227 -105 -247 0 -6 27 -42 60 -81 33 -40 60
-78 60 -86 0 -8 32 -60 70 -114 64 -91 70 -104 70 -149 0 -37 -4 -49 -15 -49
-16 0 -35 -38 -35 -71 0 -23 -39 -79 -55 -79 -18 0 -55 -44 -55 -66 0 -26 -50
-74 -76 -74 -11 0 -25 5 -32 12 -8 8 -14 5 -22 -16 -5 -15 -10 -36 -10 -47 0
-19 17 -19 944 -19 l944 0 52 58 51 57 -51 5 -50 5 37 47 38 47 70 1 c62 0
202 34 221 53 3 3 -32 31 -79 62 l-84 56 -6 82 c-4 45 -7 98 -7 118 l0 37 136
17 136 18 31 48 32 49 58 0 c31 0 57 3 57 6 0 3 -30 44 -66 91 l-66 85 28 30
c16 16 41 39 57 50 l27 20 75 -41 c41 -22 75 -37 75 -33 0 4 -7 45 -17 90 -15
78 -15 86 0 112 16 27 16 30 -34 134 -27 59 -47 111 -44 116 3 4 19 11 35 15
43 9 44 19 10 66 -38 53 -41 123 -9 175 l21 34 -32 -7 -32 -6 67 87 c63 82 65
86 41 86 -32 0 -32 1 1 60 21 38 38 53 87 77 l60 30 51 231 c29 128 50 232 48
232 -1 0 -55 -38 -118 -85 -63 -47 -115 -83 -115 -80 0 3 24 38 54 78 l55 72
86 335 86 335 15 239 c8 131 13 240 11 243 -3 2 -61 -36 -128 -84 -68 -49
-131 -93 -139 -98 -16 -10 -7 2 113 148 l78 95 12 271 c7 149 11 271 10 271
-1 0 -18 -14 -38 -31 -59 -52 -64 -41 -58 120 3 78 3 141 -1 141 -4 0 -89 -62
-189 -138 -100 -76 -189 -142 -197 -147 -8 -5 1 13 21 40 51 71 314 448 322
461 6 11 107 649 107 679 0 10 -27 -6 -76 -45 -41 -33 -76 -60 -78 -60 -1 0 7
73 17 162 l19 162 50 58 c50 58 51 60 74 185 13 69 23 128 21 130 -3 2 -296
-330 -375 -426 -30 -37 13 34 162 263 l156 240 85 255 c46 140 83 256 81 258
-2 2 -60 -72 -130 -165 -107 -143 -135 -175 -185 -206 -33 -20 -61 -36 -64
-36 -3 0 98 151 224 336 l230 335 205 426 c112 235 202 428 200 430 -2 2 -203
-230 -447 -516 -435 -508 -446 -522 -540 -682 l-95 -164 -42 -3 c-40 -3 -47
-9 -144 -119 l-103 -117 -3 58 c-3 52 -5 56 -23 51 -20 -7 -20 -6 -5 24 16 30
79 399 66 384 -4 -5 -26 -52 -50 -105 -24 -54 -47 -98 -50 -98 -4 0 -14 25
-22 57 l-16 56 39 109 c38 107 47 160 31 186 -6 9 -14 6 -32 -13 -13 -14 -34
-25 -47 -25 -22 0 -20 5 31 88 42 68 67 126 112 265 58 177 59 178 101 205 39
24 48 39 102 162 l59 135 36 324 c20 178 35 326 33 328 -2 2 -97 -177 -212
-396 l-207 -399 -41 -11 c-23 -5 -42 -9 -43 -8 -1 1 25 72 57 157 31 85 56
156 54 158 -1 2 -27 -8 -56 -21 -51 -22 -59 -32 -132 -144 -77 -120 -77 -121
-75 -184 2 -63 0 -67 -123 -314 -124 -250 -124 -250 -127 -203 -2 38 18 111
103 371 105 323 105 325 144 350 33 22 40 34 54 88 11 43 12 67 5 78 -7 12 -3
30 15 69 25 53 25 53 41 31 8 -13 17 -21 20 -18 2 2 40 213 84 469 l80 465 -8
210 c-5 116 -9 226 -9 245 -1 25 -20 -22 -70 -170 -79 -237 -169 -477 -288
-775 -137 -341 -163 -382 -163 -258 0 42 5 74 13 82 9 9 11 53 9 169 l-4 156
-45 126 -45 125 18 330 c26 451 24 631 -6 815 -28 168 -24 175 -65 -125 -62
-456 -236 -1542 -265 -1659 -19 -75 -67 -177 -86 -183 -5 -1 -38 24 -74 56
l-64 58 22 469 c34 699 36 641 -55 1248 -64 427 -79 510 -85 470 -3 -27 -7
-281 -8 -564 -2 -775 -16 -1416 -34 -1532 -26 -166 -83 -358 -107 -358 -5 0
-21 18 -35 40 l-27 40 -8 357 c-14 615 -26 693 -200 1303 -76 264 -229 772
-235 779 -2 2 -4 -2 -4 -10z m2170 -6893 c0 -2 -11 -24 -25 -47 -32 -58 -168
-150 -173 -119 -2 11 -5 20 -8 20 -2 0 -136 -108 -297 -241 -270 -222 -293
-244 -307 -286 -12 -40 -28 -56 -145 -147 -71 -56 -134 -105 -140 -108 -6 -4
-9 10 -6 38 l3 44 425 386 425 387 116 37 c123 40 132 42 132 36z m-580 -1151
c0 -17 -98 -125 -112 -125 -14 0 -18 -8 -18 -34 0 -28 -6 -38 -40 -60 -24 -15
-54 -26 -74 -26 -28 0 -43 -8 -74 -42 -58 -62 -59 -30 -1 46 35 47 56 66 72
66 29 0 47 18 47 46 0 23 46 64 72 64 8 0 29 16 48 35 19 20 44 35 57 35 13 0
23 -2 23 -5z m-68 -1264 c-15 -21 -47 -65 -72 -99 -35 -48 -53 -64 -84 -73
-21 -5 -39 -9 -41 -7 -9 10 18 48 38 53 15 4 50 41 92 96 54 71 71 87 81 78
12 -9 9 -18 -14 -48z m-172 -225 c0 -8 -35 -44 -78 -80 l-79 -65 -74 10 c-74
11 -104 23 -93 40 3 5 26 9 52 9 38 0 58 7 102 37 30 20 78 42 105 49 66 16
65 16 65 0z m-395 -204 c25 -3 38 -15 73 -69 24 -35 42 -67 39 -69 -2 -2 -28
1 -56 8 -44 10 -60 20 -97 63 -37 44 -44 59 -44 95 0 32 6 50 23 68 l22 24 5
-59 c5 -56 6 -58 35 -61z"/>
<path d="M5063 9648 c-41 -23 -53 -26 -53 -15 0 13 -6 13 -37 4 -30 -9 -40
-20 -60 -63 l-23 -51 -71 -7 c-38 -3 -80 -12 -92 -20 -12 -8 -66 -22 -120 -31
l-97 -17 -62 -67 c-93 -101 -98 -112 -98 -216 l0 -90 40 -49 40 -48 0 46 c0
45 7 55 26 37 21 -21 203 -69 281 -75 79 -5 87 -8 158 -56 67 -45 75 -53 69
-75 -5 -21 -2 -25 15 -25 18 0 21 -6 21 -47 -1 -38 -7 -55 -31 -83 -27 -32
-28 -36 -11 -43 17 -8 16 -13 -19 -80 -44 -83 -46 -91 -19 -82 18 6 20 2 20
-53 l0 -59 39 -15 c37 -15 39 -18 45 -72 5 -38 4 -62 -4 -71 -8 -10 -8 -19 -1
-34 6 -11 11 -44 11 -73 -1 -52 -3 -55 -76 -140 -59 -68 -95 -99 -158 -135
l-81 -48 258 -3 259 -2 72 45 73 45 623 0 623 0 73 -45 72 -45 248 2 249 3
-125 98 c-119 94 -128 103 -192 208 l-68 109 -7 117 c-5 99 -11 128 -34 181
-27 60 -28 65 -13 88 9 13 19 24 23 23 29 -3 52 -32 112 -144 37 -72 69 -128
69 -125 0 3 -9 38 -19 78 -13 50 -15 72 -8 72 7 0 40 -44 74 -98 92 -145 101
-150 32 -19 -33 65 -59 120 -56 123 3 3 49 -57 103 -133 144 -205 147 -205 26
-2 -98 164 -100 169 -75 169 13 0 36 -23 66 -67 57 -84 132 -174 171 -204 l28
-22 -3 74 c-5 88 -19 111 -167 282 -61 71 -91 114 -88 124 4 9 14 13 24 11 10
-3 27 1 37 8 17 12 17 15 1 39 -17 26 -14 45 6 45 6 0 41 -24 77 -53 104 -84
103 -79 -9 41 -58 62 -105 118 -105 125 0 8 16 11 49 10 61 -2 58 1 -97 95
-117 72 -140 81 -152 61 -10 -15 -55 30 -55 55 0 12 -4 26 -8 33 -4 7 -109 60
-232 118 -163 76 -236 105 -264 105 -30 0 -37 3 -32 15 3 8 9 22 12 30 5 12
-1 14 -37 9 -39 -5 -62 3 -211 70 -153 68 -180 77 -311 101 -122 21 -174 25
-338 25 -179 0 -200 -2 -272 -25 -95 -31 -101 -31 -87 -4 20 36 6 38 -47 7z
m-132 -371 c-5 -13 -6 -36 -3 -52 5 -29 5 -29 -19 -14 -42 28 -38 89 5 89 22
0 24 -3 17 -23z m328 -22 c16 -27 27 -35 50 -35 23 0 34 8 50 35 15 25 27 35
46 35 19 0 25 -5 25 -21 0 -31 -64 -106 -96 -112 -34 -6 -102 21 -109 44 -3 9
-17 34 -30 53 l-24 36 33 0 c28 0 38 -6 55 -35z"/>
<path d="M870 8931 c-84 -26 -169 -99 -211 -181 -33 -66 -38 -186 -10 -260 86
-227 380 -291 551 -120 170 170 107 466 -118 550 -54 21 -162 26 -212 11z"/>
<path d="M10915 8920 c-223 -88 -284 -381 -115 -550 171 -171 465 -107 551
120 28 74 23 194 -10 260 -31 61 -96 126 -156 158 -69 35 -197 41 -270 12z"/>
<path d="M5320 7785 l-65 -44 -456 0 -457 -1 -86 -94 -86 -94 0 -94 0 -94 45
-44 45 -44 0 -113 c0 -69 4 -113 10 -113 6 0 10 11 10 25 0 21 5 25 29 25 42
0 61 -10 61 -31 0 -10 5 -19 10 -19 6 0 10 51 10 134 l0 133 -40 46 c-35 39
-40 51 -40 94 0 43 4 53 34 82 l34 33 131 -172 131 -172 0 -89 c0 -82 1 -89
20 -89 19 0 20 7 20 96 l0 97 -136 179 c-178 235 -189 218 150 218 l252 0 112
-155 113 -155 197 0 198 0 59 60 59 60 316 0 316 0 59 -60 59 -60 197 0 197 0
113 155 113 155 252 0 c339 0 328 17 150 -218 l-136 -179 0 -97 c0 -89 1 -96
20 -96 19 0 20 7 20 89 l0 89 131 172 131 172 34 -33 c30 -29 34 -39 34 -82 0
-43 -5 -55 -40 -94 l-40 -46 0 -133 c0 -83 4 -134 10 -134 6 0 10 9 10 19 0
21 19 31 61 31 24 0 29 -4 29 -25 0 -14 5 -25 10 -25 6 0 10 44 10 111 l0 112
45 48 45 48 0 92 0 91 -86 94 -86 94 -454 0 -454 0 -70 45 -70 45 -613 -1
-612 0 -65 -44z m1050 0 l-23 -25 -347 0 -347 0 -23 25 -23 25 393 0 393 0
-23 -25z m-941 -9 l22 -23 -67 -42 -67 -42 -24 22 c-13 13 -22 26 -21 31 4 10
110 77 124 78 6 0 20 -11 33 -24z m1242 -12 c32 -20 59 -40 59 -44 0 -3 -11
-17 -24 -29 l-23 -22 -67 42 -67 42 22 23 c13 13 27 24 32 24 5 0 36 -16 68
-36z m-61 -77 l65 -42 163 -5 163 -5 -98 -132 -97 -133 -176 0 -176 0 -59 60
-59 60 -336 0 -336 0 -59 -60 -59 -60 -176 0 -176 0 -97 133 -98 132 163 5
163 5 65 42 65 43 545 0 545 0 65 -43z m-1560 8 l23 -25 -314 0 -314 0 -80
-80 c-77 -78 -81 -80 -127 -80 -37 0 -48 4 -48 16 0 8 37 56 82 105 l83 89
336 0 336 0 23 -25z m2678 -64 c45 -49 82 -97 82 -105 0 -12 -11 -16 -48 -16
-46 0 -50 2 -127 80 l-80 80 -314 0 -314 0 23 25 23 25 336 0 336 0 83 -89z"/>
<path d="M2377 6974 c-4 -4 -7 -328 -7 -721 0 -773 -1 -751 55 -803 l27 -25
789 -3 789 -2 0 460 0 461 58 76 57 76 3 -536 c2 -529 2 -537 22 -537 20 0 20
8 20 568 1 454 3 570 14 584 12 17 14 17 30 0 14 -17 16 -73 16 -585 0 -560 0
-567 20 -567 20 0 20 8 22 536 l3 535 58 -77 57 -78 0 -458 0 -458 205 0 205
0 2 499 3 500 360 -497 360 -497 290 -3 c260 -2 294 0 325 15 73 37 70 2 70
816 l0 727 -205 0 -205 0 -2 -575 -3 -575 -415 573 -415 572 -360 3 c-198 1
-365 0 -372 -2 -8 -4 -6 -23 10 -70 l21 -65 104 -3 104 -3 -81 -58 c-45 -32
-81 -64 -81 -71 0 -7 13 -51 29 -99 17 -48 28 -87 25 -87 -2 0 -38 25 -79 55
-40 30 -79 55 -85 55 -7 0 -46 -25 -87 -55 -42 -31 -78 -54 -79 -52 -2 2 10
43 26 92 17 49 30 92 30 95 0 4 -37 33 -82 66 l-82 59 103 5 104 5 18 50 c32
93 57 85 -266 85 l-285 0 0 -575 0 -575 -415 0 -415 0 -2 573 -3 572 -201 3
c-110 1 -203 -1 -207 -4z"/>
<path d="M6623 6969 c-97 -19 -168 -73 -212 -161 -55 -109 -38 -253 38 -320
20 -18 198 -157 394 -308 316 -243 357 -278 357 -302 0 -17 -7 -31 -19 -38
-13 -6 -160 -10 -410 -10 l-391 0 0 -205 0 -206 663 3 662 3 57 28 c134 66
197 216 153 364 -19 65 -22 67 -453 398 -193 149 -354 278 -357 287 -3 10 -1
26 5 38 10 20 18 20 415 20 l405 0 0 210 0 210 -632 -1 c-348 -1 -652 -5 -675
-10z"/>
<path d="M8175 6965 c-22 -8 -41 -15 -42 -15 -1 0 -11 -15 -22 -34 -21 -33
-21 -42 -21 -717 0 -527 3 -690 13 -709 7 -13 28 -35 46 -47 l34 -23 723 0
724 0 0 205 0 205 -565 0 -565 0 0 365 0 365 563 2 562 3 0 205 0 205 -705 2
c-593 2 -711 0 -745 -12z"/>
<path d="M2937 5303 c-9 -25 -15 -48 -13 -50 2 -3 22 5 43 16 71 36 67 11 -15
-89 -85 -104 -83 -105 35 -13 84 65 118 83 157 83 18 0 25 8 34 39 19 63 22
61 -106 61 l-118 0 -17 -47z"/>
<path d="M3336 5223 c-92 -102 -120 -139 -135 -183 -10 -30 -33 -93 -50 -140
l-32 -85 101 100 101 100 -7 -40 c-11 -64 -17 -74 -108 -181 -83 -98 -89 -103
-168 -135 -78 -31 -80 -33 -52 -41 16 -4 61 -11 101 -14 79 -7 56 -17 320 128
l71 39 -10 -43 c-5 -23 -10 -43 -11 -44 -1 -1 -61 -40 -133 -87 -102 -66 -311
-236 -414 -335 -5 -4 4 -2 60 14 40 11 19 -24 -62 -106 l-83 -82 65 36 c255
142 246 135 267 195 l20 56 53 7 c41 5 60 13 89 41 28 27 50 38 96 46 114 22
105 17 105 66 l0 45 50 0 c48 0 50 -1 50 -28 0 -23 -18 -42 -101 -112 l-101
-85 -89 -179 c-50 -98 -89 -180 -87 -182 2 -2 31 15 65 37 48 32 63 48 69 72
3 18 11 38 16 45 12 14 48 16 48 2 0 -5 16 -10 35 -10 31 0 35 -3 35 -27 0
-52 17 -58 24 -10 7 48 32 80 45 59 5 -8 18 -1 40 22 18 19 30 39 27 45 -4 6
8 29 26 52 l33 41 5 -32 c5 -32 6 -32 87 79 46 61 89 111 98 111 11 0 15 -13
16 -57 l1 -58 13 50 c10 42 14 47 21 30 8 -18 9 -17 15 10 4 17 7 48 8 70 1
49 34 105 60 105 21 0 74 57 66 70 -8 13 17 60 32 60 17 0 17 1 -12 70 -24 58
-25 67 -25 290 l0 230 -320 0 -319 0 -115 -127z m656 -327 c-16 -17 -39 -59
-51 -93 -13 -34 -29 -64 -37 -67 -18 -7 -17 12 1 88 11 48 23 69 62 108 48 49
48 49 51 22 3 -18 -5 -36 -26 -58z m-118 -63 c-6 -34 -82 -169 -90 -160 -2 2
1 32 7 67 9 55 15 68 47 96 20 18 38 33 40 34 2 0 0 -17 -4 -37z"/>
<path d="M4137 5344 c-4 -4 -7 -106 -7 -227 l0 -220 63 -138 62 -139 710 -542
c926 -707 871 -664 921 -727 23 -30 58 -85 76 -122 18 -37 35 -68 38 -68 3 0
20 31 38 68 18 37 53 92 76 122 50 63 -6 19 921 727 l710 542 63 139 62 139
-2 224 c-3 215 -4 223 -23 223 -19 0 -20 -8 -25 -240 l-5 -240 -37 -70 c-37
-70 -47 -71 -29 -5 9 32 9 33 -4 15 -44 -62 -44 -62 -38 -30 l6 30 -22 -20
-23 -20 8 40 c4 22 15 58 26 82 16 37 18 65 16 250 -3 200 -4 208 -23 208 -19
0 -20 -8 -25 -225 l-5 -225 -40 -94 -40 -95 -745 -568 c-410 -313 -753 -573
-762 -579 -16 -9 -18 -4 -18 59 l0 68 65 48 65 48 1 191 0 192 300 228 299
227 116 0 c112 0 114 1 104 20 -10 18 -21 20 -124 20 l-113 0 -311 -237 -311
-238 -1 -190 0 -191 -50 -38 c-49 -38 -78 -67 -49 -51 8 4 -1 -7 -18 -26 l-33
-34 -32 34 c-18 19 -26 30 -18 26 27 -15 -20 32 -61 61 l-39 27 0 191 -1 191
-311 238 -311 237 -113 0 c-103 0 -114 -2 -124 -20 -10 -19 -8 -20 104 -20
l116 0 299 -227 300 -228 0 -192 1 -191 65 -48 65 -48 0 -68 c0 -37 -2 -68 -4
-68 -3 0 -346 260 -763 578 l-758 578 -40 95 -40 94 -5 225 c-5 217 -6 225
-25 225 -19 0 -20 -8 -23 -208 -2 -185 0 -213 16 -250 11 -24 22 -60 26 -82
l8 -40 -23 20 -22 20 5 -30 c5 -28 5 -29 -8 -10 -7 11 -20 29 -28 40 -14 19
-15 17 -6 -15 19 -66 9 -65 -28 5 l-37 70 -5 240 c-4 206 -7 240 -20 243 -9 1
-19 0 -23 -4z m938 -1180 c380 -289 692 -528 695 -531 3 -3 -13 2 -35 11 -37
15 -33 9 56 -77 52 -50 84 -83 70 -71 -14 12 -217 167 -451 345 -234 177 -569
433 -744 566 -222 170 -322 241 -330 233 -12 -12 -36 -13 -36 -2 0 7 68 51 80
52 3 0 316 -237 695 -526z m2586 504 c39 -22 50 -38 26 -38 -7 0 -18 5 -24 11
-7 7 -104 -61 -329 -233 -176 -134 -510 -390 -744 -567 -234 -178 -437 -333
-451 -345 -14 -12 18 21 70 72 71 69 87 89 63 77 -19 -9 -35 -15 -37 -13 -4 3
1376 1058 1384 1058 2 0 21 -10 42 -22z"/>
<path d="M4560 5181 c0 -163 1 -171 29 -238 27 -64 35 -74 142 -161 95 -77
181 -132 207 -132 14 0 -53 61 -161 148 -109 87 -121 100 -148 159 -28 63 -29
69 -29 229 0 157 -1 164 -20 164 -19 0 -20 -7 -20 -169z"/>
<path d="M7400 5185 c0 -161 -1 -167 -29 -229 -26 -57 -39 -72 -147 -158 -114
-91 -176 -148 -160 -148 23 0 116 60 210 137 102 82 111 92 137 156 28 67 29
75 29 238 0 162 -1 169 -20 169 -19 0 -20 -7 -20 -165z"/>
<path d="M7910 5118 c0 -227 -1 -234 -25 -286 -29 -62 -30 -72 -12 -72 15 0
40 -47 32 -60 -8 -13 45 -70 66 -70 26 0 59 -56 60 -105 1 -22 4 -53 8 -70 6
-27 7 -28 15 -10 7 17 11 12 21 -30 l13 -50 1 58 c1 44 5 57 16 57 9 0 52 -50
98 -111 81 -111 82 -111 87 -79 l5 32 33 -41 c18 -23 30 -46 26 -52 -3 -6 9
-26 27 -45 22 -23 35 -30 40 -22 13 21 38 -11 45 -59 7 -48 24 -42 24 10 0 24
4 27 35 27 19 0 35 5 35 10 0 14 36 12 48 -2 5 -7 13 -27 16 -45 6 -24 21 -40
69 -72 34 -22 63 -39 65 -37 2 2 -37 84 -87 182 l-89 179 -101 85 c-83 70
-101 89 -101 112 0 27 2 28 50 28 l50 0 0 -45 c0 -49 -9 -44 105 -66 46 -8 68
-19 96 -46 29 -28 48 -36 89 -41 l53 -7 20 -56 c21 -60 12 -53 267 -195 l65
-36 -82 82 c-82 82 -103 117 -63 106 56 -16 65 -18 60 -14 -103 99 -312 269
-414 335 -72 47 -132 86 -133 87 -1 1 -6 21 -11 44 l-10 43 71 -39 c264 -145
241 -135 320 -128 40 3 85 10 101 14 28 8 26 10 -52 41 -79 32 -85 37 -168
135 -91 107 -97 117 -108 181 l-7 40 101 -100 101 -100 -24 65 c-14 36 -37 99
-51 140 -24 68 -39 89 -142 203 l-115 127 -319 0 -320 0 0 -232z m185 -294
c18 -76 19 -95 1 -88 -8 3 -24 33 -37 67 -12 34 -35 76 -51 92 -17 20 -28 42
-28 60 l0 30 50 -51 c42 -41 53 -61 65 -110z m97 -14 c7 -5 30 -132 24 -137
-9 -9 -85 127 -91 162 l-7 40 34 -30 c18 -16 36 -32 40 -35z"/>
<path d="M8810 5339 c0 -7 5 -29 12 -50 9 -31 16 -39 34 -39 39 0 73 -18 157
-83 118 -92 120 -91 35 13 -82 100 -86 125 -15 89 21 -11 41 -19 43 -16 2 2
-4 25 -13 50 l-17 47 -118 0 c-81 0 -118 -4 -118 -11z"/>
<path d="M817 5105 c5 -11 56 -117 113 -236 95 -200 106 -217 136 -228 95 -34
321 -213 445 -351 l64 -71 6 -82 c3 -45 4 -94 1 -109 -4 -26 -8 -28 -56 -28
-65 0 -180 32 -259 72 -104 52 -177 107 -284 212 -57 55 -103 96 -103 92 0
-15 139 -212 197 -278 157 -181 423 -373 738 -531 99 -49 370 -167 426 -186
l36 -12 7 -91 c16 -237 -5 -383 -73 -489 -38 -61 -43 -88 -25 -148 14 -47 21
-56 77 -92 85 -55 342 -184 522 -262 355 -153 844 -317 1225 -410 55 -13 55
-14 99 -93 221 -401 589 -742 1001 -925 314 -140 597 -196 950 -186 424 11
777 121 1132 354 53 35 99 67 102 72 3 4 -65 25 -152 46 -374 89 -765 246
-1082 434 l-85 51 67 0 c64 0 73 -3 178 -60 204 -112 490 -230 724 -299 128
-38 391 -101 423 -101 28 0 187 150 290 273 84 101 174 231 235 343 43 77 43
78 98 91 381 93 870 257 1225 410 180 78 437 207 522 262 56 36 63 45 77 92
18 60 13 87 -25 148 -68 106 -91 264 -72 498 l6 82 36 12 c20 7 108 43 196 81
431 186 761 402 963 631 59 67 202 267 202 283 0 4 -46 -38 -102 -92 -109
-106 -183 -161 -285 -212 -79 -40 -194 -72 -259 -72 -63 0 -65 5 -57 133 l6
90 121 122 c134 134 255 229 357 278 l66 32 103 215 c57 118 108 224 113 235
11 23 27 36 -138 -110 -541 -477 -1167 -818 -1890 -1030 -266 -78 -418 -126
-458 -146 -43 -23 -77 -71 -77 -111 0 -16 23 -89 50 -164 69 -185 77 -245 56
-406 -9 -70 -16 -140 -16 -156 0 -38 28 -62 72 -62 60 0 51 -13 -34 -48 -66
-27 -577 -202 -590 -202 -2 0 -2 47 0 105 2 58 1 105 -1 105 -3 0 -41 -15 -84
-34 -115 -49 -340 -120 -473 -150 -789 -175 -1593 -26 -2260 419 -179 119
-275 199 -441 364 -208 209 -357 405 -490 645 l-54 97 -42 -48 c-24 -26 -43
-55 -43 -64 0 -31 92 -336 141 -466 158 -423 384 -810 668 -1147 l82 -96 -48
6 c-42 5 -54 12 -95 57 -26 29 -87 105 -135 169 -289 387 -538 897 -649 1326
-10 39 -21 72 -24 72 -11 0 -95 -142 -150 -255 -146 -299 -212 -581 -214 -912
0 -106 -2 -193 -4 -193 -12 0 -523 175 -590 202 -83 35 -94 48 -38 48 43 0 76
25 76 58 0 15 -7 87 -17 160 -21 163 -13 218 53 394 56 151 62 192 35 235 -33
52 -87 73 -516 198 -723 212 -1349 553 -1890 1030 -165 146 -149 133 -138 110z
m299 -295 c299 -240 580 -417 919 -581 280 -135 538 -229 953 -348 117 -34
236 -72 265 -85 60 -26 86 -51 69 -68 -6 -6 -110 -16 -254 -24 -193 -10 -269
-18 -363 -39 -249 -56 -386 -132 -410 -228 -4 -15 -11 -27 -16 -27 -4 0 -79
30 -166 67 -293 124 -559 271 -745 411 -88 67 -244 207 -223 200 6 -2 46 -22
90 -44 91 -47 162 -71 254 -84 130 -18 148 4 136 172 l-7 100 -68 76 c-124
140 -307 290 -431 353 -56 28 -57 29 -118 155 -33 69 -61 128 -61 131 0 2 13
-6 28 -19 16 -13 82 -66 148 -118z m9883 6 c-61 -126 -62 -127 -118 -155 -100
-51 -232 -153 -351 -271 -64 -64 -124 -128 -134 -142 -22 -34 -29 -259 -8
-280 19 -19 127 -13 217 11 42 12 113 40 158 63 45 24 87 44 92 46 6 2 -21
-27 -60 -63 -206 -196 -531 -390 -933 -559 -74 -31 -137 -56 -142 -56 -4 0
-11 12 -15 27 -24 96 -161 172 -410 228 -94 21 -170 29 -363 39 -144 8 -248
18 -254 24 -17 17 9 42 69 68 29 13 148 51 265 85 643 184 1047 361 1497 656
147 96 365 258 481 357 35 30 66 54 67 52 2 -2 -24 -60 -58 -130z m-7709
-1261 c-74 -195 -82 -263 -54 -456 9 -60 13 -116 10 -124 -4 -12 -27 -15 -109
-15 l-104 0 -199 99 c-110 55 -247 131 -305 169 -109 73 -199 160 -199 193 0
31 56 84 124 118 164 80 300 108 599 122 125 5 238 14 250 18 34 13 32 -6 -13
-124z m5665 105 c284 -12 425 -41 583 -117 66 -33 132 -89 132 -114 0 -23 -31
-67 -75 -108 -75 -69 -217 -156 -429 -262 l-200 -100 -105 3 -106 3 1 40 c0
22 6 93 14 158 17 146 8 209 -55 378 -25 66 -45 125 -45 131 0 6 15 7 38 4 20
-4 132 -11 247 -16z m-6485 -442 c363 -257 1141 -554 1875 -717 1143 -254
2167 -254 3310 0 825 183 1688 532 1980 800 l40 37 -4 -148 c-4 -185 13 -282
69 -395 40 -80 49 -130 30 -165 -23 -43 -369 -222 -661 -343 -762 -316 -1589
-512 -2489 -589 -210 -18 -1030 -18 -1240 0 -900 77 -1727 273 -2489 589 -292
121 -638 300 -661 343 -19 35 -10 85 30 165 57 114 73 211 68 396 l-4 148 40
-37 c23 -21 70 -58 106 -84z"/>
<path d="M2640 3951 c8 -5 101 -37 205 -71 253 -82 305 -101 305 -111 0 -14
-69 -22 -138 -15 -76 8 -200 38 -275 66 -28 11 -52 18 -53 17 -2 -1 23 -31 54
-65 l57 -63 209 11 c226 11 256 15 256 35 0 21 -88 52 -362 131 -262 75 -285
80 -258 65z"/>
<path d="M9094 3885 c-267 -78 -354 -110 -354 -130 0 -20 30 -24 256 -35 l209
-11 57 63 c31 34 56 64 54 65 -1 1 -25 -6 -53 -17 -126 -48 -306 -79 -377 -66
-72 14 -60 19 269 126 186 60 238 80 205 78 -8 0 -128 -33 -266 -73z"/>
<path d="M2750 3604 c-200 -44 -370 -131 -370 -190 0 -53 228 -219 424 -309
l77 -35 -48 55 c-26 30 -58 59 -69 66 -12 6 -28 22 -35 35 -7 14 -28 34 -46
45 -18 11 -33 26 -33 33 0 12 137 59 200 69 14 2 -46 5 -134 6 l-159 1 -33 36
c-19 20 -32 40 -28 45 12 19 149 81 222 100 41 10 100 19 130 19 54 0 55 0 37
20 -21 23 -44 24 -135 4z"/>
<path d="M9115 3600 c-18 -20 -17 -20 37 -20 30 0 89 -9 130 -19 73 -19 210
-81 222 -100 4 -5 -9 -25 -28 -45 l-33 -36 -159 -1 c-88 -1 -148 -4 -134 -6
63 -10 200 -57 200 -69 0 -7 -15 -22 -33 -33 -18 -11 -39 -31 -46 -45 -7 -13
-23 -29 -35 -36 -26 -13 -111 -110 -98 -110 17 0 216 105 291 154 95 61 191
152 191 181 0 60 -174 147 -378 190 -95 19 -105 19 -127 -5z"/>
<path d="M2458 2871 c-79 -149 -77 -171 19 -220 48 -24 82 -27 105 -8 9 6 44
62 77 122 54 99 59 111 44 123 -9 6 -19 12 -22 12 -3 0 -33 -50 -65 -110 -32
-61 -65 -110 -73 -110 -17 0 -90 36 -97 49 -3 4 22 58 55 119 33 62 58 116 54
122 -18 30 -43 5 -97 -99z"/>
<path d="M9348 2917 l-77 -43 71 -129 c39 -72 74 -134 78 -138 4 -4 42 11 84
34 108 58 111 69 50 187 -47 93 -82 132 -113 132 -9 0 -51 -20 -93 -43z m155
-96 c26 -48 47 -91 47 -94 0 -3 -24 -19 -54 -35 l-53 -29 -52 95 c-29 52 -51
96 -49 97 10 10 95 55 104 55 6 0 32 -40 57 -89z"/>
<path d="M2694 2725 c-36 -75 -63 -143 -60 -151 13 -34 37 -10 77 76 26 55 45
86 50 79 4 -7 10 -61 14 -121 6 -94 10 -110 27 -119 11 -6 23 -7 27 -2 4 4 36
68 71 141 52 110 61 135 49 143 -26 17 -34 8 -79 -88 l-45 -96 -6 49 c-3 27
-9 84 -13 127 -6 62 -12 79 -27 88 -18 9 -25 -2 -85 -126z"/>
<path d="M9182 2831 c-11 -6 -4 -29 32 -105 24 -53 42 -96 39 -96 -3 0 -46 28
-97 63 -119 82 -110 78 -130 64 -16 -12 -12 -24 48 -152 40 -84 71 -139 79
-137 30 8 28 25 -17 118 -53 110 -64 109 90 7 52 -35 86 -51 97 -47 9 3 17 10
17 16 0 19 -125 278 -135 278 -5 0 -16 -4 -23 -9z"/>
<path d="M2956 2590 c-43 -102 -56 -144 -48 -152 22 -22 38 2 95 137 58 137
61 155 22 155 -5 0 -37 -63 -69 -140z"/>
<path d="M3110 2671 c-9 -19 -6 -23 30 -37 22 -9 40 -19 40 -22 0 -4 -21 -60
-46 -125 -25 -65 -45 -120 -43 -122 2 -2 13 -5 23 -7 17 -2 27 16 67 117 25
66 50 119 55 117 5 -1 24 -7 42 -13 37 -12 39 -12 44 14 2 15 -14 25 -81 52
-119 49 -118 49 -131 26z"/>
<path d="M8840 2677 c-23 -11 -26 -21 -33 -97 -9 -82 -8 -88 21 -155 32 -73
38 -80 61 -66 13 8 13 15 -1 49 l-16 40 55 21 c30 12 59 21 63 21 5 0 14 -16
20 -35 8 -23 18 -35 30 -35 32 0 31 15 -3 93 -26 60 -44 84 -91 126 -64 55
-69 57 -106 38z m84 -83 c29 -26 45 -49 40 -54 -5 -5 -33 -18 -61 -29 l-53
-21 0 29 c0 44 12 121 19 121 3 -1 28 -21 55 -46z"/>
<path d="M8647 2603 c-3 -5 -10 -35 -16 -67 -6 -33 -12 -61 -14 -63 -2 -2 -25
15 -50 38 -31 27 -54 39 -69 37 -13 -2 -23 -5 -23 -9 0 -3 22 -69 50 -147 38
-109 53 -142 67 -142 29 0 29 16 -3 105 -17 47 -29 88 -26 91 2 3 18 -11 35
-30 22 -26 36 -33 52 -29 14 4 19 11 15 21 -3 8 -2 30 1 49 8 43 15 34 50 -70
23 -68 29 -78 48 -75 26 4 26 2 -30 166 -37 104 -50 132 -65 132 -10 0 -20 -3
-22 -7z"/>
<path d="M3365 2573 c-19 -51 -95 -276 -93 -278 7 -5 194 -65 204 -65 7 0 14
9 17 19 4 17 -7 24 -77 48 -86 30 -87 32 -66 89 l9 23 61 -22 c53 -19 62 -20
70 -7 16 25 13 28 -50 51 -33 12 -60 28 -60 35 0 18 22 64 30 64 4 0 39 -11
79 -25 77 -26 91 -25 91 3 0 13 -24 26 -98 50 -54 18 -101 32 -104 32 -3 0 -9
-8 -13 -17z"/>
<path d="M8383 2513 c-12 -4 -19 -27 -37 -106 l-7 -29 -52 44 c-45 38 -86 52
-87 30 0 -4 19 -71 42 -149 39 -129 45 -143 65 -143 28 0 28 -2 -2 100 -14 46
-25 88 -25 94 1 6 16 -6 35 -28 39 -43 64 -43 66 1 1 15 4 39 8 53 7 21 12 10
36 -69 28 -90 45 -115 66 -94 12 12 -70 295 -86 299 -6 1 -16 0 -22 -3z"/>
<path d="M3625 2497 c-18 -53 -85 -290 -83 -291 10 -8 157 -46 174 -46 34 0
55 33 85 136 34 114 34 116 12 142 -23 26 -182 76 -188 59z m148 -87 c14 -12
-43 -200 -60 -200 -24 0 -103 22 -108 30 -3 4 -1 21 5 36 5 16 18 61 30 101
l20 72 53 -16 c28 -8 56 -18 60 -23z"/>
<path d="M8006 2406 c-22 -7 -49 -24 -59 -38 -19 -26 -19 -27 3 -120 28 -116
42 -144 75 -152 41 -10 144 23 163 52 15 23 14 31 -12 131 -15 58 -35 114 -43
124 -19 20 -68 21 -127 3z m122 -129 c13 -49 21 -95 19 -102 -7 -16 -106 -41
-116 -29 -5 5 -18 49 -30 98 -27 110 -17 127 73 122 29 -1 31 -4 54 -89z"/>
<path d="M4082 2228 c-18 -79 -32 -149 -32 -155 0 -7 10 -13 23 -13 21 0 24 8
41 93 10 50 21 96 24 101 3 5 24 -44 46 -110 35 -101 44 -119 64 -122 12 -2
22 -1 22 2 0 4 14 67 30 141 36 164 37 167 8 163 -20 -3 -26 -15 -44 -98 -12
-52 -23 -97 -24 -100 -1 -3 -20 49 -43 115 -34 97 -46 121 -63 123 -19 3 -23
-9 -52 -140z"/>
<path d="M7742 2343 c-51 -12 -65 -20 -77 -43 -13 -26 -12 -38 10 -137 29
-128 37 -137 116 -129 70 7 104 21 117 51 11 24 6 65 -8 65 -20 0 -38 -13 -34
-23 2 -7 0 -17 -4 -23 -9 -13 -97 -33 -111 -25 -13 8 -53 193 -43 202 10 10
105 28 114 23 4 -3 8 -12 8 -20 0 -16 36 -19 45 -4 11 18 -6 50 -35 65 -16 8
-30 15 -32 14 -2 0 -31 -7 -66 -16z"/>
<path d="M4404 2232 c-42 -56 -53 -80 -63 -133 -16 -93 -15 -101 12 -97 17 2
23 11 27 38 5 33 7 35 41 34 20 -1 48 -4 64 -8 26 -7 27 -9 21 -52 -5 -41 -4
-44 18 -44 21 0 25 7 36 66 17 87 16 97 -10 181 -21 71 -32 82 -80 83 -9 0
-38 -31 -66 -68z m106 -49 c11 -36 18 -68 16 -70 -2 -3 -32 1 -66 8 -44 8 -60
16 -56 25 8 21 70 103 78 104 4 0 16 -30 28 -67z"/>
<path d="M4606 2254 c-9 -24 2 -34 39 -34 19 0 36 -3 38 -7 3 -5 -4 -64 -14
-132 -15 -99 -16 -126 -7 -133 29 -18 36 -5 52 110 10 64 19 123 22 130 3 9
18 13 46 10 37 -2 43 0 46 19 3 23 0 24 -118 43 -87 13 -97 13 -104 -6z"/>
<path d="M7243 2253 c-90 -15 -93 -16 -93 -42 0 -36 38 -272 44 -279 6 -5 180
16 203 25 7 3 13 14 13 25 0 20 -4 20 -67 14 -38 -4 -78 -9 -89 -12 -18 -5
-23 0 -28 30 -4 20 -5 40 -2 45 4 5 33 12 66 16 49 6 60 10 60 25 0 28 -13 31
-77 21 -32 -5 -59 -8 -60 -7 -1 1 -5 20 -9 42 l-6 40 86 13 c81 12 86 15 86
37 0 28 2 28 -127 7z"/>
<path d="M4866 2188 c-3 -18 -10 -71 -16 -118 -6 -47 -13 -101 -16 -121 -5
-31 -2 -37 16 -42 12 -3 23 0 26 6 8 21 41 297 36 302 -3 3 -13 5 -23 5 -13 0
-20 -10 -23 -32z"/>
<path d="M6931 2211 c-20 -3 -42 -17 -53 -32 -18 -24 -19 -32 -8 -130 16 -140
28 -153 124 -146 60 4 73 8 93 31 24 28 30 60 14 70 -15 10 -36 -3 -46 -27 -8
-18 -19 -22 -66 -25 l-56 -3 -13 97 c-8 66 -8 100 -1 107 5 5 33 12 61 15 46
4 52 3 57 -17 4 -15 12 -21 27 -19 29 4 31 29 6 61 -23 28 -58 33 -139 18z"/>
<path d="M4994 2189 c-13 -14 -21 -49 -30 -122 -16 -147 -7 -161 107 -173 92
-9 104 6 119 148 16 148 2 168 -119 168 -46 0 -62 -4 -77 -21z m149 -99 c-1
-36 -5 -85 -8 -109 l-7 -44 -55 6 c-31 3 -59 9 -63 14 -9 10 9 184 20 198 5 6
31 8 62 5 l53 -5 -2 -65z"/>
<path d="M5246 2098 c-3 -51 -9 -121 -12 -155 -6 -62 -6 -63 19 -63 25 0 25 2
32 88 3 48 7 96 8 107 2 12 26 -26 62 -98 49 -97 64 -117 80 -115 21 3 21 0
39 236 l6 82 -24 0 c-26 0 -25 3 -39 -180 -2 -33 -6 -28 -60 78 -48 95 -61
112 -81 112 -22 0 -24 -4 -30 -92z"/>
<path d="M6636 2168 c-47 -73 -68 -187 -50 -275 5 -25 10 -29 29 -26 20 4 22
9 17 49 l-5 44 51 0 c28 0 57 3 66 6 13 5 16 -2 16 -40 0 -43 2 -46 26 -46
l27 0 -6 84 c-5 71 -11 92 -38 137 -18 30 -39 62 -47 72 -22 25 -68 22 -86 -5z
m88 -90 c17 -31 28 -59 25 -63 -4 -3 -34 -5 -67 -3 l-60 3 25 63 c14 35 30 61
35 60 6 -2 24 -29 42 -60z"/>
<path d="M5553 2155 c-11 -8 -24 -27 -27 -41 -13 -49 9 -78 95 -123 43 -23 79
-46 79 -51 0 -32 -14 -40 -67 -40 -46 0 -56 3 -60 20 -8 30 -53 27 -53 -3 0
-40 34 -61 104 -65 77 -5 102 7 115 54 15 56 -2 79 -91 126 -65 33 -78 45 -76
62 3 18 11 21 61 24 52 3 59 1 64 -17 3 -14 14 -21 29 -21 34 0 32 42 -2 69
-33 26 -137 30 -171 6z"/>
<path d="M6297 2164 c-6 -6 0 -200 9 -272 5 -37 8 -43 27 -40 21 3 22 8 19 71
l-4 67 66 0 c85 0 106 18 106 90 0 77 -19 90 -128 90 -49 0 -91 -3 -95 -6z
m175 -72 c7 -47 1 -52 -63 -52 -49 0 -59 3 -59 18 0 9 -3 27 -6 40 -6 21 -4
22 59 22 63 0 65 -1 69 -28z"/>
<path d="M6020 2138 c-21 -23 -26 -68 -10 -98 5 -10 46 -35 90 -56 64 -30 80
-41 80 -59 0 -19 -7 -23 -50 -28 -57 -7 -80 -1 -80 19 0 8 -10 14 -25 14 -28
0 -31 -10 -14 -43 18 -33 28 -37 107 -37 83 0 112 18 112 71 0 49 -14 63 -99
103 -68 32 -81 42 -81 62 0 23 3 24 65 24 51 0 65 -3 65 -15 0 -9 9 -15 25
-15 31 0 32 18 4 54 -19 24 -26 26 -94 26 -63 0 -77 -3 -95 -22z"/>
<path d="M4191 4428 c-23 -79 -48 -165 -56 -193 -18 -59 -13 -54 55 50 44 68
89 115 111 115 4 0 -2 -30 -12 -67 -10 -37 -17 -68 -16 -70 6 -5 168 149 165
157 -4 11 -187 150 -197 150 -4 0 -27 -64 -50 -142z"/>
<path d="M7655 4498 c-49 -38 -91 -73 -93 -78 -3 -8 159 -162 165 -157 1 2 -6
33 -16 70 -10 37 -16 67 -12 67 22 0 67 -47 111 -115 68 -104 73 -109 55 -50
-8 28 -33 114 -56 193 -23 78 -47 142 -53 141 -6 0 -51 -32 -101 -71z"/>
<path d="M4451 4335 c-22 -24 -41 -50 -41 -58 0 -19 110 -213 178 -314 195
-289 445 -546 728 -748 583 -417 1343 -598 2057 -490 226 34 513 115 702 198
l79 35 -2 49 c-5 78 -32 241 -58 344 -90 360 -260 670 -531 967 l-58 64 -645
-491 c-355 -270 -666 -515 -692 -544 -26 -28 -64 -83 -84 -120 -59 -111 -110
-115 -163 -10 -61 121 -85 142 -759 656 -356 271 -652 496 -658 500 -7 4 -30
-13 -53 -38z"/>
<path d="M3880 4036 l-13 -46 -51 0 c-55 -1 -55 0 8 -45 17 -12 17 -19 8 -57
-6 -23 -9 -44 -7 -46 2 -2 20 8 39 23 l35 27 36 -28 c19 -15 38 -25 40 -22 3
3 -1 24 -9 47 l-15 41 41 28 42 27 -51 3 c-50 3 -52 4 -64 40 -17 56 -25 57
-39 8z"/>
<path d="M8082 4036 l-12 -45 -52 -3 -52 -3 42 -27 41 -28 -15 -41 c-8 -23
-12 -44 -9 -47 2 -3 21 7 40 22 l36 28 35 -27 c19 -15 37 -25 39 -23 2 2 -1
23 -7 46 -9 38 -9 45 8 57 63 45 63 44 8 45 l-51 0 -13 45 c-7 25 -16 45 -19
45 -4 0 -12 -20 -19 -44z"/>
<path d="M3738 3700 c-14 -45 -15 -45 -68 -50 l-54 -5 42 -28 c48 -31 47 -30
27 -86 -13 -38 -13 -41 3 -31 9 5 28 18 42 29 25 20 25 20 55 -3 53 -40 54
-39 39 11 -14 46 -14 48 8 65 69 50 68 47 10 48 -48 0 -53 2 -62 28 -26 69
-26 70 -42 22z"/>
<path d="M8228 3700 c-14 -45 -15 -45 -68 -50 l-54 -5 42 -29 c44 -30 45 -37
21 -104 -10 -26 -5 -24 47 15 25 18 34 21 42 11 6 -7 24 -21 41 -31 l30 -18
-16 47 c-18 52 -19 50 48 96 24 17 24 17 -29 17 -48 1 -53 3 -62 29 -26 69
-26 70 -42 22z"/>
<path d="M3658 3385 c-3 -6 -11 -27 -17 -47 -12 -37 -13 -38 -64 -39 -52 0
-52 0 -28 -17 64 -44 63 -43 46 -91 -8 -24 -15 -46 -15 -48 0 -3 19 9 42 26
l42 31 30 -23 c55 -41 56 -41 39 10 l-16 47 39 33 39 33 -51 0 -50 0 -15 47
c-8 26 -17 43 -21 38z"/>
<path d="M8320 3346 l-13 -46 -51 0 -51 0 39 -33 39 -33 -16 -47 c-17 -51 -16
-51 39 -10 l30 23 42 -31 c23 -17 42 -29 42 -26 0 2 -7 24 -15 48 -17 48 -18
47 46 91 24 17 24 17 -28 17 -51 1 -52 2 -63 39 -18 56 -26 58 -40 8z"/>
</g>
</svg>
